<svg width="48" height="48" viewBox="0 0 48 48" fill="none" xmlns="http://www.w3.org/2000/svg">
<mask id="path-1-inside-1_2_1395" fill="white">
<path d="M0 3.6C0 1.61177 1.61177 0 3.6 0H44.4C46.3882 0 48 1.61177 48 3.6V44.4C48 46.3882 46.3882 48 44.4 48H3.6C1.61177 48 0 46.3882 0 44.4V3.6Z"/>
</mask>
<path d="M3.6 0V0.8H44.4V0V-0.8H3.6V0ZM48 3.6H47.2V44.4H48H48.8V3.6H48ZM44.4 48V47.2H3.6V48V48.8H44.4V48ZM0 44.4H0.8V3.6H0H-0.8V44.4H0ZM3.6 48V47.2C2.0536 47.2 0.8 45.9464 0.8 44.4H0H-0.8C-0.8 46.8301 1.16995 48.8 3.6 48.8V48ZM48 44.4H47.2C47.2 45.9464 45.9464 47.2 44.4 47.2V48V48.8C46.8301 48.8 48.8 46.8301 48.8 44.4H48ZM44.4 0V0.8C45.9464 0.8 47.2 2.0536 47.2 3.6H48H48.8C48.8 1.16995 46.8301 -0.8 44.4 -0.8V0ZM3.6 0V-0.8C1.16995 -0.8 -0.8 1.16995 -0.8 3.6H0H0.8C0.8 2.0536 2.0536 0.8 3.6 0.8V0Z" fill="#C5A059" fill-opacity="0.3" mask="url(#path-1-inside-1_2_1395)"/>
<path d="M23.0002 32C21.2443 32.0053 19.5505 31.3505 18.2547 30.1654C16.959 28.9803 16.156 27.3515 16.005 25.6021C15.8539 23.8527 16.3659 22.1104 17.4394 20.7207C18.5128 19.3311 20.0694 18.3957 21.8002 18.1C27.5002 17 29.0002 16.48 31.0002 14C32.0002 16 33.0002 18.18 33.0002 22C33.0002 27.5 28.2202 32 23.0002 32Z" stroke="#C5A059" stroke-width="2" stroke-linecap="round" stroke-linejoin="round"/>
<path d="M14 33C14 30 15.85 27.64 19.08 27C21.5 26.52 24 25 25 24" stroke="#C5A059" stroke-width="2" stroke-linecap="round" stroke-linejoin="round"/>
</svg>
