<svg width="90" height="90" viewBox="0 0 90 90" fill="none" xmlns="http://www.w3.org/2000/svg">
<path d="M45 0.5C69.5767 0.5 89.5 20.4233 89.5 45C89.5 69.5767 69.5767 89.5 45 89.5C20.4233 89.5 0.5 69.5767 0.5 45C0.5 20.4233 20.4233 0.5 45 0.5Z" fill="#4A5D4E"/>
<path d="M45 0.5C69.5767 0.5 89.5 20.4233 89.5 45C89.5 69.5767 69.5767 89.5 45 89.5C20.4233 89.5 0.5 69.5767 0.5 45C0.5 20.4233 20.4233 0.5 45 0.5Z" stroke="#C5A059"/>
<path d="M64.602 41C65.5153 45.4826 64.8644 50.1428 62.7577 54.2036C60.6509 58.2643 57.2157 61.4801 53.025 63.3146C48.8342 65.1491 44.1412 65.4915 39.7286 64.2847C35.3159 63.0779 31.4503 60.3948 28.7765 56.6828C26.1027 52.9709 24.7822 48.4545 25.0353 43.8868C25.2884 39.319 27.0997 34.9762 30.1673 31.5823C33.2348 28.1885 37.3731 25.9488 41.8921 25.2369C46.4111 24.5249 51.0375 25.3837 55 27.67" stroke="#C5A059" stroke-width="4" stroke-linecap="round" stroke-linejoin="round"/>
<path d="M39 43L45 49L65 29" stroke="#C5A059" stroke-width="4" stroke-linecap="round" stroke-linejoin="round"/>
</svg>
