<svg width="48" height="48" viewBox="0 0 48 48" fill="none" xmlns="http://www.w3.org/2000/svg">
<mask id="path-1-inside-1_2_1405" fill="white">
<path d="M0 3.6C0 1.61177 1.61177 0 3.6 0H44.4C46.3882 0 48 1.61177 48 3.6V44.4C48 46.3882 46.3882 48 44.4 48H3.6C1.61177 48 0 46.3882 0 44.4V3.6Z"/>
</mask>
<path d="M3.6 0V0.8H44.4V0V-0.8H3.6V0ZM48 3.6H47.2V44.4H48H48.8V3.6H48ZM44.4 48V47.2H3.6V48V48.8H44.4V48ZM0 44.4H0.8V3.6H0H-0.8V44.4H0ZM3.6 48V47.2C2.0536 47.2 0.8 45.9464 0.8 44.4H0H-0.8C-0.8 46.8301 1.16995 48.8 3.6 48.8V48ZM48 44.4H47.2C47.2 45.9464 45.9464 47.2 44.4 47.2V48V48.8C46.8301 48.8 48.8 46.8301 48.8 44.4H48ZM44.4 0V0.8C45.9464 0.8 47.2 2.0536 47.2 3.6H48H48.8C48.8 1.16995 46.8301 -0.8 44.4 -0.8V0ZM3.6 0V-0.8C1.16995 -0.8 -0.8 1.16995 -0.8 3.6H0H0.8C0.8 2.0536 2.0536 0.8 3.6 0.8V0Z" fill="#C5A059" fill-opacity="0.3" mask="url(#path-1-inside-1_2_1405)"/>
<path d="M14 21.5C14 20.3872 14.3376 19.3006 14.9681 18.3837C15.5987 17.4668 16.4925 16.7627 17.5316 16.3644C18.5707 15.9662 19.7062 15.8925 20.788 16.1531C21.8699 16.4137 22.8472 16.9963 23.591 17.824C23.6434 17.88 23.7067 17.9247 23.7771 17.9552C23.8474 17.9857 23.9233 18.0015 24 18.0015C24.0767 18.0015 24.1526 17.9857 24.2229 17.9552C24.2933 17.9247 24.3566 17.88 24.409 17.824C25.1504 16.9909 26.128 16.4034 27.2116 16.1396C28.2952 15.8758 29.4335 15.9484 30.4749 16.3475C31.5163 16.7466 32.4114 17.4535 33.0411 18.3739C33.6708 19.2944 34.0053 20.3848 34 21.5C34 23.79 32.5 25.5 31 27L25.508 32.313C25.3217 32.527 25.0919 32.6989 24.834 32.8173C24.5762 32.9357 24.296 32.9979 24.0123 32.9997C23.7285 33.0015 23.4476 32.9428 23.1883 32.8277C22.9289 32.7126 22.697 32.5436 22.508 32.332L17 27C15.5 25.5 14 23.8 14 21.5Z" stroke="#C5A059" stroke-width="2" stroke-linecap="round" stroke-linejoin="round"/>
</svg>
