<svg width="48" height="48" viewBox="0 0 48 48" fill="none" xmlns="http://www.w3.org/2000/svg">
<mask id="path-1-inside-1_22_5120" fill="white">
<path d="M0 24C0 10.7452 10.7452 0 24 0C37.2548 0 48 10.7452 48 24C48 37.2548 37.2548 48 24 48C10.7452 48 0 37.2548 0 24Z"/>
</mask>
<path d="M0 24C0 10.7452 10.7452 0 24 0C37.2548 0 48 10.7452 48 24C48 37.2548 37.2548 48 24 48C10.7452 48 0 37.2548 0 24Z" fill="#4A5D4E"/>
<path d="M24 48V47.2C11.187 47.2 0.8 36.813 0.8 24H0H-0.8C-0.8 37.6967 10.3033 48.8 24 48.8V48ZM48 24H47.2C47.2 36.813 36.813 47.2 24 47.2V48V48.8C37.6967 48.8 48.8 37.6967 48.8 24H48ZM24 0V0.8C36.813 0.8 47.2 11.187 47.2 24H48H48.8C48.8 10.3033 37.6967 -0.8 24 -0.8V0ZM24 0V-0.8C10.3033 -0.8 -0.8 10.3033 -0.8 24H0H0.8C0.8 11.187 11.187 0.8 24 0.8V0Z" fill="#C5A059" fill-opacity="0.3" mask="url(#path-1-inside-1_22_5120)"/>
<path d="M25.832 28.568C26.0385 28.6628 26.2712 28.6845 26.4917 28.6294C26.7122 28.5744 26.9073 28.4458 27.045 28.265L27.4 27.8C27.5863 27.5516 27.8279 27.35 28.1056 27.2111C28.3833 27.0723 28.6895 27 29 27H32C32.5304 27 33.0391 27.2107 33.4142 27.5858C33.7893 27.9609 34 28.4696 34 29V32C34 32.5304 33.7893 33.0391 33.4142 33.4142C33.0391 33.7893 32.5304 34 32 34C27.2261 34 22.6477 32.1036 19.2721 28.7279C15.8964 25.3523 14 20.7739 14 16C14 15.4696 14.2107 14.9609 14.5858 14.5858C14.9609 14.2107 15.4696 14 16 14H19C19.5304 14 20.0391 14.2107 20.4142 14.5858C20.7893 14.9609 21 15.4696 21 16V19C21 19.3105 20.9277 19.6167 20.7889 19.8944C20.65 20.1721 20.4484 20.4137 20.2 20.6L19.732 20.951C19.5484 21.0912 19.419 21.2906 19.3658 21.5154C19.3126 21.7401 19.3388 21.9764 19.44 22.184C20.8067 24.9599 23.0544 27.2048 25.832 28.568Z" stroke="#C5A059" stroke-width="2" stroke-linecap="round" stroke-linejoin="round"/>
</svg>
