<svg width="48" height="48" viewBox="0 0 48 48" fill="none" xmlns="http://www.w3.org/2000/svg">
<mask id="path-1-inside-1_22_5109" fill="white">
<path d="M0 24C0 10.7452 10.7452 0 24 0C37.2548 0 48 10.7452 48 24C48 37.2548 37.2548 48 24 48C10.7452 48 0 37.2548 0 24Z"/>
</mask>
<path d="M0 24C0 10.7452 10.7452 0 24 0C37.2548 0 48 10.7452 48 24C48 37.2548 37.2548 48 24 48C10.7452 48 0 37.2548 0 24Z" fill="#4A5D4E"/>
<path d="M24 48V47.2C11.187 47.2 0.8 36.813 0.8 24H0H-0.8C-0.8 37.6967 10.3033 48.8 24 48.8V48ZM48 24H47.2C47.2 36.813 36.813 47.2 24 47.2V48V48.8C37.6967 48.8 48.8 37.6967 48.8 24H48ZM24 0V0.8C36.813 0.8 47.2 11.187 47.2 24H48H48.8C48.8 10.3033 37.6967 -0.8 24 -0.8V0ZM24 0V-0.8C10.3033 -0.8 -0.8 10.3033 -0.8 24H0H0.8C0.8 11.187 11.187 0.8 24 0.8V0Z" fill="#C5A059" fill-opacity="0.3" mask="url(#path-1-inside-1_22_5109)"/>
<path d="M32 22C32 26.993 26.461 32.193 24.601 33.799C24.4277 33.9293 24.2168 33.9998 24 33.9998C23.7832 33.9998 23.5723 33.9293 23.399 33.799C21.539 32.193 16 26.993 16 22C16 19.8783 16.8429 17.8434 18.3431 16.3431C19.8434 14.8429 21.8783 14 24 14C26.1217 14 28.1566 14.8429 29.6569 16.3431C31.1571 17.8434 32 19.8783 32 22Z" stroke="#C5A059" stroke-width="2" stroke-linecap="round" stroke-linejoin="round"/>
<path d="M24 25C25.6569 25 27 23.6569 27 22C27 20.3431 25.6569 19 24 19C22.3431 19 21 20.3431 21 22C21 23.6569 22.3431 25 24 25Z" stroke="#C5A059" stroke-width="2" stroke-linecap="round" stroke-linejoin="round"/>
</svg>
