<svg width="36" height="36" viewBox="0 0 36 36" fill="none" xmlns="http://www.w3.org/2000/svg">
<path d="M16.3334 17.1666V22.1666" stroke="#F5F5F0" stroke-width="1.66667" stroke-linecap="round" stroke-linejoin="round"/>
<path d="M19.6666 17.1666V22.1666" stroke="#F5F5F0" stroke-width="1.66667" stroke-linecap="round" stroke-linejoin="round"/>
<path d="M23.8333 13V24.6667C23.8333 25.1087 23.6577 25.5326 23.3451 25.8452C23.0326 26.1577 22.6087 26.3333 22.1666 26.3333H13.8333C13.3913 26.3333 12.9673 26.1577 12.6548 25.8452C12.3422 25.5326 12.1666 25.1087 12.1666 24.6667V13" stroke="#F5F5F0" stroke-width="1.66667" stroke-linecap="round" stroke-linejoin="round"/>
<path d="M10.5 13H25.5" stroke="#F5F5F0" stroke-width="1.66667" stroke-linecap="round" stroke-linejoin="round"/>
<path d="M14.6666 13V11.3333C14.6666 10.8913 14.8422 10.4673 15.1548 10.1548C15.4673 9.84222 15.8913 9.66663 16.3333 9.66663H19.6666C20.1087 9.66663 20.5326 9.84222 20.8451 10.1548C21.1577 10.4673 21.3333 10.8913 21.3333 11.3333V13" stroke="#F5F5F0" stroke-width="1.66667" stroke-linecap="round" stroke-linejoin="round"/>
</svg>
