<svg width="16" height="16" viewBox="0 0 16 16" fill="none" xmlns="http://www.w3.org/2000/svg">
<g clip-path="url(#clip0_99_957)">
<path d="M8.39071 1.72404C8.14072 1.47397 7.80163 1.33345 7.44804 1.33337H2.66671C2.31309 1.33337 1.97395 1.47385 1.7239 1.7239C1.47385 1.97395 1.33337 2.31309 1.33337 2.66671V7.44804C1.33345 7.80163 1.47397 8.14072 1.72404 8.39071L7.52671 14.1934C7.82972 14.4945 8.23954 14.6635 8.66671 14.6635C9.09388 14.6635 9.5037 14.4945 9.80671 14.1934L14.1934 9.80671C14.4945 9.5037 14.6635 9.09388 14.6635 8.66671C14.6635 8.23954 14.4945 7.82972 14.1934 7.52671L8.39071 1.72404Z" stroke="#F5F5F0" stroke-width="1.33333" stroke-linecap="round" stroke-linejoin="round"/>
<path d="M4.99996 5.33329C5.18405 5.33329 5.33329 5.18405 5.33329 4.99996C5.33329 4.81586 5.18405 4.66663 4.99996 4.66663C4.81586 4.66663 4.66663 4.81586 4.66663 4.99996C4.66663 5.18405 4.81586 5.33329 4.99996 5.33329Z" fill="#F5F5F0" stroke="#F5F5F0" stroke-width="1.33333" stroke-linecap="round" stroke-linejoin="round"/>
</g>
<defs>
<clipPath id="clip0_99_957">
<rect width="16" height="16" fill="white"/>
</clipPath>
</defs>
</svg>
