<svg width="80" height="80" viewBox="0 0 80 80" fill="none" xmlns="http://www.w3.org/2000/svg">
<mask id="path-1-inside-1_99_446" fill="white">
<path d="M0 40C0 17.9086 17.9086 0 40 0C62.0914 0 80 17.9086 80 40C80 62.0914 62.0914 80 40 80C17.9086 80 0 62.0914 0 40Z"/>
</mask>
<path d="M0 40C0 17.9086 17.9086 0 40 0C62.0914 0 80 17.9086 80 40C80 62.0914 62.0914 80 40 80C17.9086 80 0 62.0914 0 40Z" fill="#4A5D4E"/>
<path d="M40 80V78.4C18.7923 78.4 1.6 61.2077 1.6 40H0H-1.6C-1.6 62.975 17.025 81.6 40 81.6V80ZM80 40H78.4C78.4 61.2077 61.2077 78.4 40 78.4V80V81.6C62.975 81.6 81.6 62.975 81.6 40H80ZM40 0V1.6C61.2077 1.6 78.4 18.7923 78.4 40H80H81.6C81.6 17.025 62.975 -1.6 40 -1.6V0ZM40 0V-1.6C17.025 -1.6 -1.6 17.025 -1.6 40H0H1.6C1.6 18.7923 18.7923 1.6 40 1.6V0Z" fill="#C5A059" mask="url(#path-1-inside-1_99_446)"/>
<path d="M51.6667 55V51.6667C51.6667 49.8986 50.9643 48.2029 49.7141 46.9526C48.4638 45.7024 46.7681 45 45 45H35C33.2319 45 31.5362 45.7024 30.286 46.9526C29.0357 48.2029 28.3333 49.8986 28.3333 51.6667V55" stroke="#C5A059" stroke-width="3.33333" stroke-linecap="round" stroke-linejoin="round"/>
<path d="M40 38.3333C43.6819 38.3333 46.6667 35.3486 46.6667 31.6667C46.6667 27.9848 43.6819 25 40 25C36.3181 25 33.3333 27.9848 33.3333 31.6667C33.3333 35.3486 36.3181 38.3333 40 38.3333Z" stroke="#C5A059" stroke-width="3.33333" stroke-linecap="round" stroke-linejoin="round"/>
</svg>
